<?xml version="1.0" encoding="utf-8"?>
<!-- Generated by IcoMoon.io -->
<!DOCTYPE svg PUBLIC "-//W3C//DTD SVG 1.1//EN" "http://www.w3.org/Graphics/SVG/1.1/DTD/svg11.dtd">
<svg version="1.1" xmlns="http://www.w3.org/2000/svg" xmlns:xlink="http://www.w3.org/1999/xlink" width="32" height="32" viewBox="0 0 32 32">
<path fill="#444" d="M24.28 22.991v-5.594c0-2.997-1.6-4.392-3.733-4.392-1.721 0-2.493 0.947-2.922 1.611v-1.382h-3.243c0.043 0.916 0 9.756 0 9.756h3.243v-5.449c0-0.291 0.021-0.582 0.107-0.79 0.234-0.583 0.768-1.186 1.663-1.186 1.174 0 1.643 0.895 1.643 2.206v5.22h3.242zM10.966 11.903c1.13 0 1.835-0.75 1.835-1.686-0.021-0.957-0.704-1.685-1.813-1.685s-1.835 0.728-1.835 1.685c0 0.937 0.704 1.686 1.792 1.686h0.021zM16.239 30.567c-7.913 0-14.328-6.415-14.328-14.328s6.415-14.328 14.328-14.328 14.328 6.415 14.328 14.328c0 7.913-6.415 14.328-14.328 14.328zM12.587 22.991v-9.756h-3.242v9.756h3.242z"></path>
</svg>
