<?xml version="1.0" encoding="UTF-8" standalone="no"?>
<!-- Generator: Adobe Illustrator 18.1.1, SVG Export Plug-In . SVG Version: 6.00 Build 0)  -->

<svg
   xmlns:dc="http://purl.org/dc/elements/1.1/"
   xmlns:cc="http://creativecommons.org/ns#"
   xmlns:rdf="http://www.w3.org/1999/02/22-rdf-syntax-ns#"
   xmlns:svg="http://www.w3.org/2000/svg"
   xmlns="http://www.w3.org/2000/svg"
   xmlns:sodipodi="http://sodipodi.sourceforge.net/DTD/sodipodi-0.dtd"
   xmlns:inkscape="http://www.inkscape.org/namespaces/inkscape"
   version="1.1"
   id="Layer_1"
   x="0px"
   y="0px"
   viewBox="0 127 612 665"
   enable-background="new 0 127 612 665"
   xml:space="preserve"
   inkscape:version="0.91 r13725"
   sodipodi:docname="logo-white-old.svg"><metadata
     id="metadata15"><rdf:RDF><cc:Work
         rdf:about=""><dc:format>image/svg+xml</dc:format><dc:type
           rdf:resource="http://purl.org/dc/dcmitype/StillImage" /><dc:title></dc:title></cc:Work></rdf:RDF></metadata><defs
     id="defs13" /><sodipodi:namedview
     pagecolor="#ffffff"
     bordercolor="#666666"
     borderopacity="1"
     objecttolerance="10"
     gridtolerance="10"
     guidetolerance="10"
     inkscape:pageopacity="0"
     inkscape:pageshadow="2"
     inkscape:window-width="1507"
     inkscape:window-height="811"
     id="namedview11"
     showgrid="false"
     inkscape:zoom="0.70710678"
     inkscape:cx="649.08193"
     inkscape:cy="314.45989"
     inkscape:window-x="2927"
     inkscape:window-y="86"
     inkscape:window-maximized="0"
     inkscape:current-layer="Layer_1_1_" /><g
     id="bg" /><g
     id="Layer_1_1_"
     style="fill:#000000"
     transform="translate(10.958656,-32.875971)"><flowRoot
       xml:space="preserve"
       id="flowRoot3343"
       style="fill:black;stroke:none;stroke-opacity:1;stroke-width:1px;stroke-linejoin:miter;stroke-linecap:butt;fill-opacity:1;font-family:sans-serif;font-style:normal;font-weight:normal;font-size:40px;line-height:125%;letter-spacing:0px;word-spacing:0px"><flowRegion
         id="flowRegion3345"><rect
           id="rect3347"
           width="379.56802"
           height="264.004"
           x="127.51892"
           y="378.08243" /></flowRegion><flowPara
         id="flowPara3349"></flowPara></flowRoot><g
       transform="matrix(7.9884594,0,0,9.0330453,-505.30079,-2679.8139)"
       style="font-style:normal;font-weight:normal;font-size:40px;line-height:125%;font-family:sans-serif;letter-spacing:0px;word-spacing:0px;fill:#ffffff;fill-opacity:1;stroke:none;stroke-width:1px;stroke-linecap:butt;stroke-linejoin:miter;stroke-opacity:1"
       id="flowRoot3364"><path
         d="m 97.012315,347.21728 5.094325,0.53753 c -0.08,-1.33333 -0.4,-2.48 -0.96,-3.44 -0.56,-0.98667 -1.293333,-1.8 -2.199999,-2.44 -0.88,-0.66667 -1.893333,-1.16 -3.04,-1.48 -1.12,-0.32 -2.293333,-0.48 -3.52,-0.48 -1.68,0 -3.173333,0.28 -4.48,0.84 -1.306667,0.56 -2.413333,1.34667 -3.32,2.36 -0.906667,0.98667 -1.6,2.17333 -2.08,3.56 -0.453333,1.36 -0.68,2.84 -0.68,4.44 0,1.54667 0.253333,2.97333 0.76,4.28 0.506667,1.28 1.213333,2.38667 2.12,3.32 0.906667,0.93333 2,1.66667 3.28,2.2 1.306667,0.50667 2.733333,0.76 4.28,0.76 2.746667,0 5,-0.72 6.76,-2.16 -0.807287,-1.33744 -0.177285,-0.13481 -1.595766,-2.91593 -0.869357,0.32865 -1.574461,0.59036 -2.151071,0.77441 -1.059666,0.43022 -1.797037,0.28634 -3.157037,0.28634 -0.88,0 -1.522793,-0.42482 -2.136126,-0.82482 -0.613333,-0.4 -1.106667,-0.90667 -1.48,-1.52 -0.346667,-0.64 -0.6,-1.34667 -0.76,-2.12 -0.16,-0.77333 -0.24,-1.53333 -0.24,-2.28 0,-0.77333 0.08,-1.54667 0.24,-2.32 0.16,-0.8 0.426667,-1.52 0.8,-2.16 0.4,-0.66667 0.906667,-1.2 1.52,-1.6 0.613333,-0.42667 1.373523,-0.65605 2.28,-0.64 2.53015,0.0448 2.895318,0.69393 4.665674,3.02247 z"
         style="font-style:normal;font-variant:normal;font-weight:bold;font-stretch:normal;font-family:'Helvetica Neue';-inkscape-font-specification:'Helvetica Neue Bold';fill:#ffffff"
         id="path3373"
         inkscape:connector-curvature="0"
         sodipodi:nodetypes="cccccssccscscscccsscsscccsc" /><path
         d="m 110.91729,361.20555 8.0285,-20.47097 c 0,0 -2.00604,0.049 -5.49347,0.049 l -6.33828,16.80238 -0.71858,-1.64412 -5.06705,-11.23958 -0.29164,-0.52574 -0.52192,-0.80246 c -0.3809,-0.20337 -0.32966,-0.0729 -0.49744,-0.0506 l -4.328208,2.20883 7.381298,15.68426 z"
         style="font-style:normal;font-variant:normal;font-weight:bold;font-stretch:normal;font-family:'Helvetica Neue';-inkscape-font-specification:'Helvetica Neue Bold';fill:#ffffff"
         id="path3375"
         inkscape:connector-curvature="0"
         sodipodi:nodetypes="cccccccccccc" /></g></g></svg>